HIERARCHY
ROOT Hips
{
	OFFSET -3.958830 18.904000 13.208200
	CHANNELS 6 Xposition Yposition Zposition Zrotation Yrotation Xrotation 
	JOINT LHipJoint
	{
		OFFSET 0.000000 0.000000 0.000000
		CHANNELS 3 Zrotation Yrotation Xrotation
		JOINT LeftUpLeg
		{
			OFFSET 1.800000 -1.400000 0.085000
			CHANNELS 3 Zrotation Yrotation Xrotation
			JOINT LeftLeg
			{
				OFFSET 2.215000 -6.000000 0.000000
				CHANNELS 3 Zrotation Yrotation Xrotation
				JOINT LeftFoot
				{
					OFFSET 2.500000 -6.900000 0.000000
					CHANNELS 3 Zrotation Yrotation Xrotation
					JOINT LeftToeBase
					{
						OFFSET 0.200000 -0.500000 1.950000
						CHANNELS 3 Zrotation Yrotation Xrotation
						End Site
						{
							OFFSET 0.000000 0.000000 0.000000
						}
					}
				}
			}
		}
	}
	JOINT RHipJoint
	{
		OFFSET 0.000000 0.000000 0.000000
		CHANNELS 3 Zrotation Yrotation Xrotation
		JOINT RightUpLeg
		{
			OFFSET -1.800000 -1.400000 0.085000
			CHANNELS 3 Zrotation Yrotation Xrotation
			JOINT RightLeg
			{
				OFFSET -2.215000 -6.000000 0.000000
				CHANNELS 3 Zrotation Yrotation Xrotation
				JOINT RightFoot
				{
					OFFSET -2.500000 -6.900000 0.000000
					CHANNELS 3 Zrotation Yrotation Xrotation
					JOINT RightToeBase
					{
						OFFSET -0.200000 -0.500000 1.950000
						CHANNELS 3 Zrotation Yrotation Xrotation
						End Site
						{
							OFFSET 0.000000 0.000000 0.000000
						}
					}
				}
			}
		}
	}
	JOINT LowerBack
	{
		OFFSET 0.000000 0.000000 0.000000
		CHANNELS 3 Zrotation Yrotation Xrotation
		JOINT Spine
		{
			OFFSET -0.087000 1.940000 -0.288900
			CHANNELS 3 Zrotation Yrotation Xrotation
			JOINT Spine1
			{
				OFFSET 0.000000 1.950000 0.060000
				CHANNELS 3 Zrotation Yrotation Xrotation
				JOINT Neck
				{
					OFFSET 0.000000 0.000000 0.000000
					CHANNELS 3 Zrotation Yrotation Xrotation
					JOINT Neck1
					{
						OFFSET 0.000000 1.600000 0.340000
						CHANNELS 3 Zrotation Yrotation Xrotation
						JOINT Head
						{
							OFFSET 0.000000 1.667000 -0.240000
							CHANNELS 3 Zrotation Yrotation Xrotation
							End Site
							{
								OFFSET 0.000000 0.000000 0.000000
							}
						}
					}
				}
				JOINT LeftShoulder
				{
					OFFSET 0.000000 0.000000 0.000000
					CHANNELS 3 Zrotation Yrotation Xrotation
					JOINT LeftArm
					{
						OFFSET 2.700000 1.550000 -0.730000
						CHANNELS 3 Zrotation Yrotation Xrotation
						JOINT LeftForeArm
						{
							OFFSET 5.450000 0.000000 0.000000
							CHANNELS 3 Zrotation Yrotation Xrotation
							JOINT LeftHand
							{
								OFFSET 3.450000 0.000000 0.000000
								CHANNELS 3 Zrotation Yrotation Xrotation
								JOINT LeftHandIndex1
								{
									OFFSET 0.750000 0.000000 0.000000
									CHANNELS 3 Zrotation Yrotation Xrotation
									End Site
									{
										OFFSET 0.000000 0.000000 0.000000
									}
								}
							}
						}
					}
				}
				JOINT RightShoulder
				{
					OFFSET 0.000000 0.000000 0.000000
					CHANNELS 3 Zrotation Yrotation Xrotation
					JOINT RightArm
					{
						OFFSET -2.700000 1.550000 -0.730000
						CHANNELS 3 Zrotation Yrotation Xrotation
						JOINT RightForeArm
						{
							OFFSET -5.450000 0.000000 0.000000
							CHANNELS 3 Zrotation Yrotation Xrotation
							JOINT RightHand
							{
								OFFSET -3.450000 0.000000 0.000000
								CHANNELS 3 Zrotation Yrotation Xrotation
								JOINT RightHandIndex1
								{
									OFFSET -0.750000 0.000000 0.000000
									CHANNELS 3 Zrotation Yrotation Xrotation
									End Site
									{
										OFFSET 0.000000 0.000000 0.000000
									}
								}
							}
						}
					}
				}
			}
		}
	}
}
MOTION
Frames: 12
Frame Time: 0.016667
-0.266290 16.469860 -3.506780 -1.965585 -4.855536 2.864713 -15.081652 13.426296 2.671463 19.058805 -1.024985 -15.991822 -7.483065 8.309445 19.368243 -0.176604 5.337642 2.596816 0.238210 0.132690 0.157470 18.317914 -10.673293 2.575775 -24.719078 0.174911 -24.008085 11.328454 -10.368492 27.726750 -0.257480 -5.364557 2.283422 0.179640 0.170800 0.106160 -3.716165 -2.252683 -7.151070 7.826081 -3.367167 9.541375 -9.261415 -2.067556 7.059669 1.969316 -7.893125 -8.964733 -15.004770 9.085177 24.987711 -2.298450 5.832910 -9.543030 -12.558480 2.505036 0.998221 -39.146989 0.760466 -6.828510 3.637554 -39.358768 -1.390133 -3.702975 3.064738 0.210820 0.104210 -0.030260 0.104320 8.602138 2.881605 6.827182 44.807578 -3.041764 -3.346726 104.927296 52.141657 51.132347 2.282108 -2.098821 -0.143300 0.192590 0.011020 -0.106010 
-0.296780 16.466110 -3.504380 -1.298233 -5.500738 2.585824 -15.058365 13.410603 2.666508 18.875916 -0.952985 -15.693665 -7.966719 8.624893 19.948186 -0.152647 5.462514 2.552909 0.248820 0.153470 0.164940 18.347378 -10.723392 2.536319 -25.109244 0.053414 -24.317539 10.291375 -10.243468 28.511468 -0.258431 -5.392213 2.267500 0.192710 0.170280 0.109770 -3.785481 -2.159902 -7.116976 8.134256 -3.947336 9.458913 -10.812699 -2.622732 7.190674 2.320013 -8.149085 -8.977058 -15.385414 10.179004 24.712817 -2.795700 6.797510 -9.274620 -12.020531 3.370909 0.888133 -38.264837 2.214824 -6.739798 6.193205 -35.407827 -1.783732 -3.739153 3.037056 0.200500 0.113680 -0.026690 0.108800 7.332416 2.113083 6.887903 43.706507 -3.062323 -1.790376 117.862120 50.695938 62.021768 2.223465 -2.182165 -0.138700 0.189680 0.002660 -0.105180 
-0.356000 16.464470 -3.484860 -0.460184 -5.409005 2.274172 -15.028382 13.450722 2.638106 18.510046 -0.884658 -15.163978 -7.996890 8.628060 19.930360 -0.135877 5.449140 2.558492 0.262860 0.180140 0.169840 18.372964 -10.808262 2.444319 -25.455466 -0.228020 -23.836081 9.192629 -10.018196 28.791311 -0.258462 -5.373885 2.268444 0.203470 0.164310 0.117420 -3.866279 -2.141684 -7.034117 8.814683 -5.007191 9.135685 -12.382891 -3.688648 7.290879 2.576777 -8.778772 -9.096141 -16.551788 11.692430 24.146748 -3.239320 7.923300 -8.943790 -10.319049 4.986671 0.867193 -38.380417 3.946133 -6.659084 8.637226 -30.455620 -1.983734 -3.786265 3.020842 0.186810 0.118880 -0.019640 0.113410 5.106045 0.803906 6.990218 42.062338 -3.378205 0.154639 130.918484 48.124687 74.557459 2.136619 -2.307625 -0.123600 0.176950 -0.007050 -0.100030 
-0.427500 16.460300 -3.457930 0.191284 -5.453205 2.179991 -14.988362 13.478349 2.594943 18.219257 -0.765377 -14.548801 -7.775988 8.487319 19.536176 -0.133887 5.387911 2.596158 0.231180 0.141870 0.156360 18.399328 -10.884320 2.422851 -25.596505 -0.305509 -23.322976 9.004779 -9.970364 28.673895 -0.250648 -5.371396 2.275920 0.180050 0.176250 0.115260 -3.959998 -2.056769 -6.990831 9.692387 -5.848644 9.066694 -13.607567 -4.562543 6.899742 2.935562 -9.354250 -9.364503 -17.469797 12.773468 23.163365 -3.947490 8.942210 -8.535650 -8.255566 7.032776 0.851935 -39.676190 6.565998 -7.440419 11.688681 -27.767504 -2.364927 -3.835772 2.986290 0.189260 0.127710 -0.027010 0.106190 2.337100 -0.737559 7.462645 40.706023 -4.337029 2.013457 143.894824 45.304535 90.464489 2.066190 -2.398241 -0.136510 0.177850 0.007660 -0.104010 
-0.511350 16.447450 -3.444350 0.570500 -5.196467 2.594596 -14.959751 13.434910 2.590169 18.299294 -0.760301 -14.628424 -7.644319 8.280883 18.844050 -0.119122 5.257937 2.645090 0.214110 0.123010 0.146800 18.424811 -10.886239 2.491075 -25.607429 -0.130339 -23.728068 9.487695 -10.257405 29.306036 -0.268036 -5.480969 2.245687 0.153510 0.167390 0.110050 -4.039055 -1.938367 -7.034268 10.377253 -6.537124 9.492230 -13.839669 -5.314447 5.601140 3.067163 -9.749736 -9.416791 -17.823447 13.054792 21.702634 -4.085960 9.507890 -8.758800 -4.845091 10.374430 0.641278 -42.341177 9.419078 -9.048628 12.412584 -27.131505 -2.430782 -3.847968 2.991940 0.192890 0.115450 -0.022720 0.103920 -1.348566 -3.392470 7.894331 39.951680 -6.028450 3.270785 152.870411 42.604371 104.198899 2.028955 -2.494096 -0.130560 0.164030 0.004880 -0.101440 
-0.600920 16.437080 -3.445330 0.853883 -4.954519 3.604772 -14.956756 13.397301 2.599624 18.150099 -0.921676 -15.268009 -7.253968 7.879009 17.869447 -0.135936 5.067889 2.732674 0.155210 0.054020 0.112480 18.429248 -10.813996 2.622644 -25.324260 0.272252 -24.965960 10.186218 -10.540049 30.048576 -0.263332 -5.592293 2.223250 0.112750 0.206070 0.105080 -4.049878 -1.913414 -7.111945 10.570512 -7.350666 10.151813 -13.072177 -6.268901 3.101750 3.105177 -10.050864 -9.045540 -17.846978 13.459562 19.387192 -4.439840 10.635410 -8.648720 -1.644713 14.722505 0.182667 -45.621736 13.133876 -11.663458 12.714480 -28.857154 -2.698103 -3.890089 2.986831 0.188230 0.136500 -0.047480 0.098220 -4.665873 -6.905478 8.091780 38.443193 -7.635766 4.330861 162.889946 40.670961 125.914328 2.002378 -2.544818 -0.156210 0.170790 0.028840 -0.100990 
-0.694730 16.439860 -3.441200 0.724957 -4.346239 4.915966 -14.960226 13.407317 2.636860 18.243390 -1.207432 -16.566491 -6.249876 7.347733 17.179071 -0.141950 4.826524 2.832029 0.070510 -0.047630 0.064540 18.417462 -10.721363 2.764772 -24.470855 0.875103 -26.347524 10.804597 -10.753256 30.925453 -0.252417 -5.671763 2.222827 0.041810 0.242770 0.101320 -4.031468 -1.995899 -7.236535 11.096015 -7.820337 11.144112 -12.073543 -6.738823 -0.619320 3.281171 -10.046844 -8.472924 -17.497842 13.494868 17.979746 -4.808840 12.066020 -7.659080 0.484785 19.206150 -0.677628 -47.404987 16.185036 -14.039391 13.070200 -32.017327 -3.066633 -3.919527 2.999960 0.181300 0.158900 -0.075530 0.086900 -7.260077 -10.823223 8.218146 37.996913 -11.037991 4.350218 168.746698 38.856882 141.750479 2.002889 -2.599920 -0.178540 0.156590 0.057140 -0.101180 
-0.795820 16.439960 -3.441800 0.414827 -3.521600 6.819944 -14.991128 13.393313 2.723321 18.335532 -1.569177 -18.489715 -5.235445 6.723638 16.089680 -0.161651 4.536334 2.944426 0.012730 -0.115520 0.021960 18.388115 -10.556192 2.924941 -23.315059 1.717168 -27.992239 11.554877 -10.850277 31.563214 -0.235297 -5.715414 2.232525 -0.000790 0.282830 0.101390 -3.954612 -2.158246 -7.377018 11.469699 -7.714355 11.792743 -9.813789 -6.537140 -5.047242 3.080954 -10.077746 -7.555003 -17.233792 12.847035 16.833693 -4.873380 12.599340 -6.572840 1.771007 23.497932 -1.737694 -49.023178 18.171237 -15.656456 14.679819 -34.942305 -3.635728 -3.961765 3.023029 0.155050 0.187970 -0.111850 0.084730 -8.265341 -14.403973 7.547759 36.800425 -13.135970 4.330915 175.230140 37.124354 162.207499 2.008170 -2.642626 -0.191670 0.142430 0.076170 -0.093550 
-0.901070 16.450980 -3.440040 -0.294966 -2.601902 9.246596 -15.051114 13.328281 2.892757 18.951454 -1.955159 -20.865255 -4.599860 6.237342 14.848016 -0.172556 4.335567 3.028818 -0.051260 -0.192490 -0.025510 18.344882 -10.303402 3.093530 -21.740055 2.745743 -29.954103 12.339195 -10.809022 31.836962 -0.202505 -5.686521 2.273737 -0.042620 0.330980 0.101710 -3.821018 -2.401209 -7.562891 11.986512 -6.859357 12.186052 -7.465635 -5.290701 -9.904349 3.077037 -9.965447 -6.506385 -16.601692 10.578616 15.971364 -5.393600 11.861420 -5.367490 1.756263 27.527924 -3.337867 -49.491306 18.596862 -16.048029 18.534921 -39.460791 -4.859175 -4.008949 3.047574 0.118420 0.226420 -0.158480 0.083800 -8.328019 -17.791629 6.776394 35.399497 -17.060727 3.118194 -178.371117 35.387903 -175.948475 2.006635 -2.684754 -0.208400 0.134200 0.098220 -0.081950 
-1.015280 16.464270 -3.438580 -0.955597 -1.945751 11.638503 -15.129817 13.225713 3.065072 19.657431 -2.247427 -23.226169 -4.281806 5.984806 14.104292 -0.175635 4.263786 3.069845 -0.110570 -0.260390 -0.087100 18.307121 -9.995832 3.245516 -20.400162 3.767401 -31.752233 13.309715 -10.726814 31.674952 -0.161371 -5.641753 2.320637 -0.070070 0.397930 0.099100 -3.668717 -2.697379 -7.702142 12.084190 -5.899199 12.042554 -4.607266 -3.945642 -13.756042 2.543106 -10.206184 -5.595661 -16.682475 8.581970 14.686417 -5.365370 10.804310 -3.916350 1.783545 30.691498 -4.050902 -51.510403 19.797123 -16.824040 22.554489 -43.726067 -6.411781 -4.052430 3.057213 0.072080 0.272750 -0.218770 0.090590 -7.203974 -20.301702 5.259599 33.580067 -20.048303 1.295585 -171.303233 32.888074 -150.312104 1.993389 -2.711071 -0.229590 0.138660 0.126590 -0.062240 
-1.131820 16.475050 -3.446560 -1.384545 -0.977163 12.868288 -15.154328 13.126590 3.125272 19.858321 -2.346806 -24.782584 -3.707891 5.830934 14.238716 -0.175444 4.191036 3.098582 -0.123310 -0.274310 -0.102340 18.310310 -9.888864 3.316685 -19.280530 4.323954 -32.364039 14.141650 -10.736698 31.339954 -0.155207 -5.608252 2.348267 -0.079100 0.410540 0.099260 -3.654212 -2.677977 -7.730966 12.227763 -5.337415 11.965716 -3.289130 -3.292539 -14.871899 2.021362 -9.924104 -5.082668 -15.760435 6.966735 13.701854 -5.258430 9.914670 -3.953850 2.201250 32.352332 -3.979081 -53.567333 21.013674 -17.824335 23.804838 -48.596406 -7.515048 -4.014042 3.104340 0.053860 0.282980 -0.235220 0.095170 -6.639634 -22.051563 4.138904 35.897631 -21.904991 -0.208079 -169.338249 32.667278 -143.588116 1.951054 -2.737111 -0.228700 0.131750 0.125220 -0.053750 
-1.252510 16.485900 -3.450930 -1.657574 -0.678038 13.744483 -15.200665 13.042758 3.219941 20.272980 -2.327296 -26.093006 -4.192551 6.275152 15.700230 -0.133895 4.377825 3.026554 -0.151600 -0.315600 -0.114350 18.287483 -9.768943 3.392463 -18.398902 4.848205 -32.790679 15.158942 -10.758691 30.822669 -0.150427 -5.565091 2.375372 -0.113450 0.407360 0.101250 -3.561928 -2.696162 -7.814574 11.280987 -4.131441 12.268995 -1.553191 -2.035423 -15.936506 1.500439 -9.337419 -4.802505 -14.401041 4.942795 13.565565 -5.366330 8.658460 -3.759990 2.431394 33.550649 -3.369047 -54.250253 22.325596 -18.188311 22.373528 -57.444751 -8.615222 -3.903618 3.243940 0.047560 0.280250 -0.242160 0.089080 -5.707394 -23.557835 2.733452 39.666132 -23.907312 -2.248616 -166.837208 31.884458 -134.496302 1.903434 -2.741919 -0.224110 0.113390 0.128080 -0.049670 
